<?xml version="1.0" standalone="yes"?>
<svg xmlns="http://www.w3.org/2000/svg" width="200" height="200">
<path style="fill:#030405; stroke:none;" d="M0 0L0 200L200 200L200 0L0 0z"/>
<path style="fill:#2e5d4b; stroke:none;" d="M86 55.4676C75.5269 57.4468 66.5939 65.7601 63.76 76C62.4581 80.7045 63.3527 86.7438 60.8372 90.9498C57.5589 96.4312 46.2688 105.272 52.6034 112.566C57.7327 118.472 67.9645 112.617 74 111.97C82.6945 111.038 90.5763 116.411 100 114.536C110.707 112.406 119.535 103.503 122.239 93C123.419 88.4161 122.028 83.1516 124.6 79C127.834 73.7777 138.833 65.4154 133.254 58.3032C127.928 51.5142 117.416 58.3715 111 58.6034C102.463 58.9119 95.2279 53.7237 86 55.4676z"/>
<path style="fill:#4acc6d; stroke:none;" d="M67 86C72.5132 83.5151 75.1701 80.0899 74 74C79.0366 72.4245 82.9685 68.6941 88 67.3194C99.8782 64.0741 107.996 73.0945 112 83C121.731 77.1357 113.196 67.2703 105.996 62.9306C88.0199 52.0952 67.4093 66.2743 67 86z"/>
<path style="fill:#030405; stroke:none;" d="M114 63L121 74L130 61L114 63z"/>
<path style="fill:#f7fbf8; stroke:none;" d="M79 73C89.9767 73.1297 86.0663 79.6253 83 87L80 86L81 82C60.8324 90.641 96.222 118.911 107 97L97 96L105 84L104 89L112 84C108.895 69.1951 90.0819 58.8897 79 73M74 81L79 78C76.0529 76.9971 75.0865 78.2779 74 81z"/>
<path style="fill:#4acc6d; stroke:none;" d="M76 79L77 80L76 79M86 79L87 80L86 79M80 81L81 82L80 81M77 83L78 84L77 83M80 83L81 84L80 83M76 84L77 85L76 84M111 97C105.651 97.8922 102.328 102.628 97 104.071C85.9469 107.065 75.111 97.7887 74 87C63.8669 92.4367 71.8649 102.452 79 107.03C98.1088 119.291 116.556 103.234 119 84C112.852 86.6122 110.312 90.3382 111 97M80 85L81 86L80 85M109 85L110 86L109 85M82 86L83 87L82 86M100 87L101 88L100 87M105 88L106 89L105 88M99 89L100 90L99 89M109 90L110 91L109 90z"/>
<path style="fill:#f7fbf8; stroke:none;" d="M110 90L107 92L107 93C109.348 92.7058 110.951 92.5066 110 90z"/>
<path style="fill:#4acc6d; stroke:none;" d="M97 94L98 95L97 94z"/>
<path style="fill:#030405; stroke:none;" d="M62 97L56 110L71 107L65 97L62 97z"/>
<path style="fill:#2e5d4b; stroke:none;" d="M10 121L10 157L12 157L12 123L16 123L16 121L10 121M22 121L23 145L24 145L27 121L22 121M107 121L107 126L109 123L124 123L124 121L107 121z"/>
<path style="fill:#4acc6d; stroke:none;" d="M12 123L11 158L17 158L16 134L17 134L23 158L29 158L29 122L24 123L24 145L23 145L18 122L12 123M109 123L108 127L115 127L114 158L120 158L120 127L126 127L126 122L109 123z"/>
<path style="fill:#2e5d4b; stroke:none;" d="M112 127L112 157L115 157L115 127L112 127M35 156C31.9887 143.352 31.9492 129.016 48 131C31.1926 118.267 25.6719 149.953 35 156M50 129L55 157L57 157C56.8672 150.566 50.2121 133.863 56 130L50 129M62 129L61 152L62 152C62.2717 145.673 62.1751 133.564 68 130L62 129M70 129L72 156L73 156C72.4336 148.823 68.4937 134.139 76 130L70 129M81 129L78 154C86.2738 152.619 83 136.562 83 130L87 130L81 129M93 145C91.2454 135.543 93.5922 129.908 104 131C93.8004 123.273 84.6784 136.851 93 145M129 156C126.937 144.888 125.169 128.389 141 131C138.411 128.037 129.474 127.652 127.028 131.318C124.002 135.853 124.601 152.892 129 156M146 129L146 157L148 157C148 149.768 144.874 133.929 152 130L146 129M153 129L153 133L158 130L153 129M159 129L159 157C167.386 151.563 156.614 135.437 165 130L159 129M166 129L167 132L171 130L166 129M175 156C175 150.087 171.903 125.213 184 132L188 130C171.43 123.047 165.452 146.65 175 156z"/>
<path style="fill:#4acc6d; stroke:none;" d="M39.0193 130.576C29.231 133.389 30.0892 162.741 46.8912 157.566C51.8381 156.043 50.9984 150.108 51 146C51.0033 137.513 51.1252 127.097 39.0193 130.576M53 130L57 158C69.4841 157.956 69.5535 140.398 70 130L65 130L62 152L61 152L58 130L53 130M88 158L88 130L83 130C83 136.895 86.0982 151.542 78 154L78 130C69.6823 130.648 69.2103 150.85 73.9884 156.397C76.6267 159.459 84.3505 158 88 158M93 146L102 146C101.867 150.09 101.504 152.792 97 153L98 150L92 150C93.9601 171.527 117.701 146.456 102.946 142.318C101.08 141.795 98.9139 142.007 97 142L101 134L101 138L107 138C106.785 131.39 99.1366 126.419 93.7423 132.514C90.6851 135.968 92.2527 141.975 93 146M144 149L133 153L134 146L145 146C145 141.943 146.098 135.698 143.258 132.368C138.233 126.477 128.471 131.217 128.044 138.001C127.748 142.692 126.369 152.695 129.858 156.397C136.169 163.09 143.921 155.661 144 149M148 158L154 158C154 150.634 151.349 138.859 159 135L159 130L153 133C152.289 129.681 148.933 129.257 148.111 133.028C146.455 140.625 148 150.213 148 158M162 130L161 158L167 158L167.599 139.054L173 130L162 130M190 158L190 130L184 132C173.205 123.967 172.255 151.635 176.028 156.397C178.384 159.37 186.519 157.919 190 158z"/>
<path style="fill:#01ff01; stroke:none;" d="M143 131L144 132L143 131z"/>
<path style="fill:#2e5d4b; stroke:none;" d="M58 132L59 133L58 132M16 134L22 157L23 157C22.4107 149.785 20.3762 139.85 16 134M43 134L43 152L39 152L39 153L45 154L43 134M100 134L99 137L102 137L100 134M137 134L137 140L133 140L133 142L139 142L137 134z"/>
<path style="fill:#030405; stroke:none;" d="M39 152L43 152L43 135C36.8235 137.05 39 146.611 39 152M134 135L134 140L137 140L137 135L134 135M180 135L180 152C184.86 148.849 183 140.231 183 135L180 135z"/>
<path style="fill:#2e5d4b; stroke:none;" d="M183 135L180 154C187.701 152.715 185 141.05 185 135L183 135M97 140L97 142L104 142L97 140M100 146L97 153C101.971 153.76 101.951 150.175 102 146L100 146M90 148L93 156L92 150L96 150L96 148L90 148M137 148L133 153L143 149L137 148z"/>
<path style="fill:#01ff01; stroke:none;" d="M66 151L67 152L66 151z"/>
</svg>
